<?xml version="1.0" encoding="UTF-8"?>
<svg xmlns="http://www.w3.org/2000/svg"
     width="1884"
     height="835"
     viewBox="0 0 1884 835"
     preserveAspectRatio="xMidYMid meet"
     role="img"
     aria-labelledby="jks-title jks-description"
     color="#ffffff">
  <title id="jks-title">JKS handwritten signature logo</title>
  <desc id="jks-description">A clean vector recreation of the handwritten JKS signature mark.</desc>
  <path class="jks-signature"
        d="M 1475.28 457.97 L 1473.49 458.83 L 1471.86 459.91 L 1470.50 461.22 L 1469.51 462.75 L 1468.94 464.43 L 1468.83 466.12 L 1469.18 467.74 L 1469.93 469.25 L 1471.03 470.63 L 1472.40 471.85 L 1473.96 472.91 L 1475.65 473.78 L 1477.42 474.45 L 1479.25 474.95 L 1481.15 475.29 L 1483.09 475.51 L 1485.08 475.61 L 1487.10 475.63 L 1489.15 475.58 L 1491.21 475.48 L 1493.28 475.37 L 1495.35 475.25 L 1497.42 475.15 L 1499.48 475.06 L 1501.53 474.98 L 1503.58 474.92 L 1505.63 474.87 L 1507.67 474.83 L 1509.70 474.80 L 1511.74 474.79 L 1513.76 474.78 L 1515.79 474.77 L 1517.81 474.78 L 1519.83 474.79 L 1521.85 474.80 L 1523.87 474.82 L 1525.89 474.84 L 1527.91 474.86 L 1529.92 474.89 L 1531.94 474.91 L 1533.95 474.93 L 1535.97 474.95 L 1537.99 474.97 L 1540.01 474.99 L 1542.03 475.01 L 1544.05 475.02 L 1546.07 475.03 L 1548.10 475.05 L 1550.12 475.06 L 1552.14 475.06 L 1554.17 475.07 L 1556.19 475.08 L 1558.22 475.08 L 1560.25 475.09 L 1562.27 475.09 L 1564.30 475.09 L 1566.33 475.09 L 1568.36 475.09 L 1570.38 475.09 L 1572.41 475.09 L 1574.44 475.08 L 1576.47 475.08 L 1578.50 475.07 L 1580.53 475.07 L 1582.56 475.06 L 1584.59 475.06 L 1586.62 475.05 L 1588.65 475.05 L 1590.68 475.04 L 1592.71 475.03 L 1594.74 475.03 L 1596.77 475.02 L 1598.80 475.01 L 1600.82 475.01 L 1602.85 475.00 L 1604.88 474.99 L 1606.91 474.99 L 1608.94 474.98 L 1610.97 474.98 L 1612.99 474.97 L 1615.02 474.97 L 1617.05 474.96 L 1619.07 474.96 L 1621.10 474.96 L 1623.12 474.95 L 1625.15 474.95 L 1627.17 474.95 L 1629.20 474.95 L 1631.22 474.95 L 1633.25 474.95 L 1635.27 474.95 L 1637.29 474.95 L 1639.32 474.95 L 1641.34 474.95 L 1643.37 474.95 L 1645.39 474.95 L 1647.41 474.95 L 1649.44 474.95 L 1651.46 474.96 L 1653.49 474.96 L 1655.51 474.96 L 1657.53 474.97 L 1659.56 474.97 L 1661.58 474.97 L 1663.61 474.98 L 1665.63 474.98 L 1667.66 474.99 L 1669.68 474.99 L 1671.71 475.00 L 1673.74 475.00 L 1675.76 475.01 L 1677.79 475.01 L 1679.82 475.02 L 1681.85 475.02 L 1683.88 475.03 L 1685.91 475.04 L 1687.94 475.04 L 1689.97 475.05 L 1692.00 475.06 L 1694.03 475.06 L 1696.06 475.07 L 1698.09 475.08 L 1700.12 475.08 L 1702.16 475.08 L 1704.19 475.09 L 1706.22 475.09 L 1708.25 475.09 L 1710.28 475.08 L 1712.30 475.08 L 1714.33 475.07 L 1716.35 475.06 L 1718.38 475.05 L 1720.40 475.03 L 1722.42 475.01 L 1724.43 474.98 L 1726.45 474.95 L 1728.46 474.92 L 1730.47 474.88 L 1732.47 474.84 L 1734.48 474.81 L 1736.49 474.78 L 1738.51 474.76 L 1740.53 474.75 L 1742.55 474.77 L 1744.59 474.81 L 1746.64 474.88 L 1748.71 474.98 L 1750.78 475.11 L 1752.87 475.26 L 1754.95 475.39 L 1757.02 475.49 L 1759.06 475.52 L 1761.08 475.47 L 1763.04 475.30 L 1764.96 474.99 L 1766.81 474.51 L 1768.58 473.85 L 1770.26 472.97 L 1771.77 471.91 L 1773.05 470.67 L 1774.04 469.26 L 1774.68 467.71 L 1774.91 466.03 L 1774.71 464.26 L 1774.12 462.52 L 1773.20 460.87 L 1771.98 459.42 L 1770.50 458.26 L 1768.80 457.46 L 1766.93 457.00 L 1764.94 456.79 L 1762.87 456.75 L 1760.77 456.80 L 1758.68 456.86 L 1756.62 456.91 L 1754.58 456.94 L 1752.56 456.96 L 1750.54 456.97 L 1748.53 456.98 L 1746.51 456.99 L 1744.49 457.00 L 1742.47 457.00 L 1740.45 457.01 L 1738.43 457.01 L 1736.40 457.02 L 1734.38 457.02 L 1732.36 457.02 L 1730.33 457.03 L 1728.31 457.03 L 1726.28 457.03 L 1724.26 457.03 L 1722.23 457.03 L 1720.20 457.03 L 1718.18 457.03 L 1716.15 457.02 L 1714.12 457.02 L 1712.09 457.02 L 1710.07 457.02 L 1708.04 457.02 L 1706.01 457.02 L 1703.99 457.01 L 1701.96 457.01 L 1699.93 457.01 L 1697.90 457.01 L 1695.88 457.01 L 1693.85 457.00 L 1691.82 457.00 L 1689.80 457.00 L 1687.77 457.00 L 1685.74 457.00 L 1683.72 456.99 L 1681.69 456.99 L 1679.66 456.99 L 1677.63 456.99 L 1675.61 456.99 L 1673.58 456.99 L 1671.55 456.98 L 1669.53 456.98 L 1667.50 456.98 L 1665.47 456.98 L 1663.45 456.98 L 1661.42 456.98 L 1659.39 456.98 L 1657.37 456.98 L 1655.34 456.98 L 1653.32 456.98 L 1651.29 456.98 L 1649.26 456.98 L 1647.24 456.98 L 1645.21 456.98 L 1643.18 456.98 L 1641.16 456.98 L 1639.13 456.98 L 1637.11 456.98 L 1635.08 456.98 L 1633.05 456.99 L 1631.03 456.99 L 1629.00 456.99 L 1626.98 456.99 L 1624.95 456.99 L 1622.93 457.00 L 1620.90 457.00 L 1618.87 457.00 L 1616.85 457.01 L 1614.82 457.01 L 1612.80 457.01 L 1610.77 457.02 L 1608.75 457.02 L 1606.72 457.02 L 1604.69 457.02 L 1602.67 457.03 L 1600.64 457.03 L 1598.62 457.03 L 1596.59 457.03 L 1594.57 457.04 L 1592.54 457.04 L 1590.51 457.04 L 1588.49 457.04 L 1586.46 457.04 L 1584.43 457.04 L 1582.41 457.04 L 1580.38 457.04 L 1578.35 457.04 L 1576.33 457.04 L 1574.30 457.03 L 1572.27 457.03 L 1570.25 457.03 L 1568.22 457.02 L 1566.19 457.02 L 1564.16 457.01 L 1562.14 457.01 L 1560.11 457.00 L 1558.08 456.99 L 1556.05 456.98 L 1554.02 456.97 L 1551.99 456.96 L 1549.97 456.95 L 1547.94 456.94 L 1545.91 456.93 L 1543.88 456.92 L 1541.85 456.92 L 1539.82 456.91 L 1537.80 456.90 L 1535.77 456.90 L 1533.74 456.90 L 1531.72 456.90 L 1529.69 456.91 L 1527.67 456.91 L 1525.64 456.93 L 1523.62 456.95 L 1521.60 456.97 L 1519.58 456.99 L 1517.56 457.03 L 1515.54 457.07 L 1513.53 457.11 L 1511.51 457.16 L 1509.50 457.20 L 1507.48 457.24 L 1505.46 457.27 L 1503.43 457.28 L 1501.40 457.26 L 1499.37 457.23 L 1497.33 457.16 L 1495.28 457.05 L 1493.22 456.91 L 1491.15 456.75 L 1489.09 456.60 L 1487.04 456.48 L 1485.00 456.42 L 1482.99 456.45 L 1481.00 456.59 L 1479.05 456.88 L 1477.14 457.33 Z M 651.10 211.37 L 649.89 211.69 L 648.64 211.97 L 647.32 212.21 L 646.09 212.63 L 644.97 213.24 L 643.90 213.98 L 642.84 214.77 L 641.74 215.56 L 640.65 216.37 L 639.60 217.24 L 638.65 218.21 L 637.81 219.29 L 637.08 220.42 L 636.42 221.56 L 635.83 222.70 L 635.28 223.84 L 634.75 225.01 L 634.28 226.22 L 633.95 227.47 L 633.71 228.73 L 633.35 230.03 L 632.99 231.33 L 632.89 232.62 L 633.24 233.89 L 633.76 235.15 L 634.02 236.44 L 634.18 237.73 L 634.63 238.93 L 635.27 240.07 L 635.88 241.22 L 636.43 242.37 L 636.99 243.53 L 637.69 244.64 L 638.57 245.70 L 639.58 246.66 L 640.67 247.50 L 641.79 248.18 L 642.92 248.75 L 644.08 249.30 L 645.24 249.86 L 646.42 250.42 L 647.61 250.93 L 648.81 251.36 L 650.04 251.68 L 651.33 251.92 L 652.70 252.07 L 654.11 252.12 L 655.52 252.07 L 656.89 251.90 L 658.17 251.61 L 659.37 251.25 L 660.64 250.98 L 661.95 250.73 L 663.14 250.24 L 664.28 249.66 L 665.42 249.08 L 666.54 248.33 L 667.61 247.44 L 668.59 246.61 L 669.49 245.84 L 670.35 244.97 L 671.19 243.99 L 672.00 242.93 L 672.76 241.85 L 673.45 240.73 L 674.06 239.57 L 674.55 238.37 L 674.90 237.14 L 675.15 235.90 L 675.44 234.63 L 675.83 233.32 L 676.12 232.00 L 676.11 230.68 L 675.76 229.38 L 675.34 228.09 L 675.08 226.81 L 674.84 225.56 L 674.43 224.34 L 673.90 223.16 L 673.29 222.01 L 672.62 220.88 L 671.91 219.78 L 671.18 218.69 L 670.40 217.66 L 669.52 216.71 L 668.53 215.88 L 667.42 215.16 L 666.26 214.50 L 665.12 213.86 L 664.00 213.22 L 662.86 212.64 L 661.67 212.16 L 660.43 211.77 L 659.22 211.40 L 657.95 211.10 L 656.59 210.93 L 655.19 210.88 L 653.77 210.95 L 652.40 211.11 Z M 1116.08 62.36 L 1114.02 62.95 L 1111.67 63.00 L 1109.44 63.40 L 1107.43 64.24 L 1105.31 64.87 L 1103.24 65.62 L 1101.28 66.62 L 1099.15 67.22 L 1097.30 68.49 L 1095.39 69.61 L 1093.39 70.52 L 1091.47 71.63 L 1089.62 72.90 L 1087.81 74.26 L 1086.01 75.64 L 1084.19 76.99 L 1082.35 78.29 L 1080.57 79.72 L 1078.82 81.24 L 1077.00 82.60 L 1075.17 83.92 L 1073.46 85.51 L 1071.79 87.21 L 1070.11 88.90 L 1068.41 90.57 L 1066.73 92.25 L 1065.06 93.93 L 1063.40 95.62 L 1061.72 97.30 L 1060.04 98.98 L 1058.33 100.65 L 1056.62 102.32 L 1054.95 104.00 L 1053.37 105.72 L 1051.94 107.51 L 1050.68 109.36 L 1049.00 111.04 L 1047.18 112.67 L 1046.05 114.57 L 1044.65 116.37 L 1042.88 118.02 L 1041.31 119.74 L 1040.00 121.57 L 1038.51 123.34 L 1037.07 125.11 L 1035.71 126.93 L 1034.24 128.69 L 1032.78 130.46 L 1031.40 132.27 L 1030.08 134.10 L 1028.68 135.90 L 1027.30 137.70 L 1026.04 139.56 L 1024.62 141.35 L 1022.99 143.05 L 1021.70 144.89 L 1020.52 146.78 L 1019.22 148.61 L 1017.83 150.42 L 1016.40 152.20 L 1015.07 154.02 L 1013.88 155.91 L 1012.71 157.80 L 1011.44 159.65 L 1010.03 161.44 L 1008.76 163.29 L 1007.58 165.18 L 1006.31 167.03 L 1005.05 168.88 L 1003.84 170.76 L 1002.61 172.63 L 1001.30 174.46 L 1000.11 176.34 L 999.11 178.31 L 997.90 180.18 L 996.62 182.03 L 995.42 183.91 L 994.14 185.75 L 992.92 187.62 L 991.97 189.61 L 990.64 191.43 L 989.60 193.38 L 988.48 195.29 L 987.19 197.13 L 986.25 199.12 L 984.97 200.97 L 983.84 202.87 L 982.80 204.82 L 981.50 206.66 L 980.48 208.61 L 979.32 210.51 L 978.11 212.38 L 977.04 214.32 L 975.90 216.22 L 974.66 218.08 L 973.68 220.05 L 972.79 222.06 L 971.69 223.98 L 970.40 225.83 L 969.33 227.76 L 968.44 229.76 L 967.22 231.64 L 966.02 233.51 L 964.98 235.46 L 964.04 237.45 L 963.08 239.43 L 961.79 241.27 L 960.62 243.16 L 959.69 245.15 L 958.68 247.11 L 957.74 249.10 L 956.68 251.03 L 955.39 252.88 L 954.30 254.80 L 953.38 256.80 L 952.37 258.75 L 951.37 260.72 L 950.44 262.71 L 949.30 264.61 L 948.01 266.46 L 947.01 268.41 L 946.08 270.41 L 945.06 272.36 L 944.08 274.33 L 943.10 276.30 L 942.11 278.27 L 941.13 280.24 L 940.14 282.21 L 939.17 284.18 L 938.19 286.15 L 937.17 288.10 L 936.05 290.02 L 934.98 291.95 L 934.06 293.95 L 932.88 295.83 L 931.79 297.76 L 930.90 299.77 L 929.88 301.72 L 928.90 303.69 L 927.92 305.66 L 926.93 307.63 L 925.95 309.60 L 924.97 311.57 L 923.98 313.54 L 923.00 315.50 L 922.01 317.47 L 921.03 319.44 L 920.04 321.41 L 919.06 323.38 L 918.08 325.35 L 917.09 327.31 L 916.09 329.27 L 915.19 331.31 L 913.81 332.93 L 911.78 333.74 L 909.68 334.46 L 907.69 335.37 L 905.63 336.15 L 903.54 336.83 L 901.44 337.50 L 899.36 338.22 L 897.27 338.91 L 895.18 339.60 L 893.10 340.31 L 891.00 340.98 L 888.94 341.75 L 886.98 342.74 L 884.85 343.35 L 882.78 344.08 L 880.69 344.77 L 878.60 345.46 L 876.52 346.17 L 874.43 346.86 L 872.33 347.55 L 870.25 348.26 L 868.16 348.94 L 866.08 349.66 L 863.98 350.33 L 861.89 351.03 L 859.81 351.74 L 857.72 352.43 L 855.63 353.12 L 853.54 353.82 L 851.46 354.53 L 849.36 355.20 L 847.28 355.91 L 845.19 356.59 L 843.11 357.33 L 841.00 357.96 L 838.95 358.76 L 836.98 359.74 L 834.86 360.35 L 832.79 361.09 L 830.68 361.73 L 828.62 362.50 L 826.62 363.41 L 824.56 364.16 L 822.47 364.85 L 820.38 365.56 L 818.21 366.05 L 816.07 366.62 L 813.98 367.31 L 811.99 368.25 L 809.96 369.08 L 807.83 369.68 L 805.66 370.17 L 803.57 370.87 L 801.62 371.89 L 799.49 372.48 L 797.41 373.20 L 795.32 373.89 L 793.23 374.59 L 791.15 375.29 L 789.06 375.99 L 786.96 376.66 L 784.88 377.38 L 782.79 378.07 L 780.70 378.76 L 778.61 379.46 L 776.53 380.17 L 774.44 380.86 L 772.34 381.54 L 770.26 382.25 L 768.17 382.94 L 766.09 383.65 L 763.99 384.32 L 761.91 385.04 L 759.82 385.72 L 757.74 386.44 L 755.64 387.11 L 753.56 387.81 L 751.47 388.51 L 749.38 389.19 L 747.35 390.04 L 745.35 390.94 L 743.24 391.58 L 741.15 392.27 L 739.06 392.98 L 736.97 393.67 L 734.89 394.38 L 732.80 395.08 L 730.70 395.74 L 728.62 396.46 L 726.66 397.47 L 724.51 398.00 L 722.35 398.52 L 720.27 399.24 L 718.18 399.94 L 716.11 400.68 L 714.12 401.61 L 712.06 402.37 L 709.94 402.99 L 707.86 403.72 L 705.78 404.42 L 703.68 405.10 L 701.60 405.80 L 699.51 406.50 L 697.42 407.20 L 695.34 407.90 L 693.24 408.57 L 691.16 409.30 L 689.05 409.93 L 687.02 410.77 L 685.01 411.66 L 682.94 412.38 L 680.82 413.02 L 678.79 413.84 L 676.79 414.76 L 674.70 415.45 L 672.60 416.12 L 670.53 416.85 L 668.29 417.19 L 666.22 417.93 L 664.13 418.63 L 662.04 419.31 L 660.04 420.21 L 658.00 421.03 L 655.91 421.71 L 653.81 422.38 L 651.73 423.10 L 649.64 423.79 L 647.55 424.48 L 645.47 425.19 L 643.37 425.88 L 641.28 426.56 L 639.20 427.28 L 637.11 427.96 L 635.02 428.67 L 632.94 429.37 L 630.82 430.00 L 628.81 430.88 L 626.79 431.75 L 624.70 432.43 L 622.61 433.13 L 620.53 433.84 L 618.43 434.51 L 616.35 435.22 L 614.26 435.91 L 612.18 436.63 L 610.08 437.29 L 608.00 438.00 L 605.91 438.69 L 603.82 439.40 L 601.73 440.09 L 599.64 440.77 L 597.56 441.49 L 595.47 442.18 L 593.38 442.86 L 591.31 443.60 L 589.18 444.24 L 587.15 444.95 L 584.96 445.80 L 583.23 445.20 L 583.65 443.16 L 585.18 441.32 L 586.11 439.37 L 586.98 437.36 L 588.09 435.43 L 589.30 433.56 L 590.45 431.66 L 591.43 429.69 L 592.38 427.70 L 593.38 425.74 L 594.38 423.78 L 595.34 421.80 L 596.30 419.82 L 597.39 417.90 L 598.63 416.04 L 599.75 414.12 L 600.67 412.13 L 601.66 410.16 L 602.66 408.20 L 603.64 406.23 L 604.62 404.26 L 605.58 402.28 L 606.71 400.37 L 608.00 398.53 L 608.99 396.56 L 609.94 394.58 L 610.95 392.62 L 611.92 390.65 L 612.92 388.68 L 613.89 386.71 L 614.85 384.73 L 616.07 382.86 L 617.32 381.00 L 618.26 379.02 L 618.98 376.94 L 620.02 374.99 L 620.99 373.02 L 621.92 371.03 L 623.20 369.18 L 624.18 367.21 L 624.95 365.15 L 625.68 363.08 L 626.69 361.12 L 627.67 359.15 L 628.67 357.19 L 629.66 355.22 L 630.23 353.08 L 631.18 351.10 L 632.25 349.16 L 632.93 347.07 L 633.76 345.04 L 634.66 343.03 L 635.36 340.95 L 636.05 338.86 L 636.72 336.76 L 637.53 334.72 L 637.91 332.50 L 638.34 330.30 L 638.82 328.12 L 639.07 325.84 L 639.07 323.45 L 638.73 321.14 L 638.10 319.06 L 637.63 316.91 L 636.77 314.88 L 635.68 312.88 L 634.23 311.13 L 632.46 309.68 L 630.57 308.37 L 628.75 307.05 L 626.77 306.17 L 624.44 305.99 L 622.30 305.40 L 620.15 305.02 L 617.71 304.89 L 615.35 305.05 L 613.24 305.61 L 611.02 306.01 L 608.68 306.09 L 606.58 306.77 L 604.38 307.20 L 602.29 307.89 L 600.21 308.60 L 598.13 309.30 L 596.03 309.97 L 593.96 310.71 L 592.03 311.79 L 590.01 312.66 L 587.93 313.37 L 585.91 314.24 L 583.97 315.29 L 582.00 316.27 L 580.01 317.20 L 578.07 318.26 L 576.22 319.54 L 574.31 320.65 L 572.31 321.57 L 570.35 322.58 L 568.39 323.56 L 566.41 324.50 L 564.49 325.64 L 562.68 327.13 L 561.32 329.00 L 560.82 331.22 L 560.54 333.13 L 560.92 335.21 L 562.07 337.12 L 563.83 338.53 L 565.91 339.48 L 568.03 339.93 L 570.09 339.33 L 572.21 338.62 L 574.18 337.68 L 576.14 336.67 L 578.12 335.69 L 580.08 334.71 L 582.05 333.72 L 584.02 332.74 L 585.99 331.74 L 587.96 330.78 L 589.93 329.80 L 591.88 328.77 L 593.87 327.82 L 595.91 327.02 L 597.97 326.25 L 599.98 325.37 L 602.04 324.60 L 604.16 323.98 L 606.23 323.24 L 608.30 322.53 L 610.47 321.99 L 612.75 321.82 L 614.79 321.05 L 617.26 320.92 L 619.10 322.06 L 620.03 324.08 L 620.14 326.48 L 619.72 328.81 L 619.07 330.83 L 618.37 332.93 L 617.63 335.01 L 617.00 337.12 L 616.21 339.17 L 615.16 341.11 L 614.26 343.12 L 613.61 345.22 L 612.69 347.22 L 611.61 349.15 L 610.94 351.25 L 610.16 353.30 L 609.10 355.24 L 608.15 357.22 L 607.16 359.19 L 606.17 361.15 L 605.19 363.12 L 604.20 365.09 L 603.22 367.06 L 602.24 369.03 L 601.25 371.00 L 600.27 372.97 L 599.28 374.93 L 598.30 376.90 L 597.32 378.87 L 596.32 380.84 L 595.36 382.81 L 594.35 384.77 L 593.36 386.74 L 592.43 388.73 L 591.41 390.68 L 590.25 392.58 L 589.17 394.51 L 588.43 396.58 L 587.43 398.54 L 586.03 400.34 L 585.08 402.32 L 584.12 404.30 L 583.11 406.26 L 582.14 408.23 L 581.16 410.20 L 580.16 412.17 L 579.18 414.13 L 578.21 416.11 L 577.19 418.06 L 576.25 420.05 L 575.28 422.03 L 574.03 423.88 L 572.88 425.78 L 571.86 427.74 L 570.87 429.70 L 569.94 431.70 L 568.92 433.65 L 567.63 435.49 L 566.52 437.41 L 565.55 439.38 L 564.58 441.36 L 563.60 443.33 L 562.58 445.28 L 561.62 447.26 L 560.69 449.27 L 559.53 451.12 L 558.36 453.06 L 557.09 454.92 L 555.24 456.12 L 553.31 457.22 L 551.21 457.88 L 549.01 458.31 L 546.93 459.02 L 544.85 459.72 L 542.76 460.42 L 540.65 461.08 L 538.64 461.94 L 536.62 462.81 L 534.53 463.51 L 532.43 464.17 L 530.35 464.89 L 528.26 465.57 L 526.18 466.30 L 524.07 466.94 L 522.02 467.72 L 520.05 468.71 L 517.93 469.34 L 515.84 470.02 L 513.81 470.86 L 511.80 471.75 L 509.71 472.44 L 507.61 473.10 L 505.58 473.93 L 503.59 474.87 L 501.48 475.51 L 499.36 476.14 L 497.38 477.09 L 495.34 477.91 L 493.26 478.61 L 491.28 479.56 L 489.20 480.28 L 487.18 481.14 L 485.15 481.99 L 483.05 482.65 L 480.95 483.31 L 478.96 484.25 L 477.02 485.29 L 474.94 486.01 L 472.88 486.79 L 470.90 487.74 L 468.79 488.39 L 466.79 489.30 L 464.87 490.39 L 462.77 491.06 L 460.71 491.83 L 458.77 492.88 L 456.80 493.87 L 454.81 494.79 L 452.68 495.39 L 450.72 496.39 L 448.76 497.40 L 446.68 498.11 L 444.62 498.87 L 442.68 499.94 L 440.70 500.88 L 438.75 501.92 L 436.73 502.77 L 434.64 503.46 L 432.64 504.39 L 430.70 505.43 L 428.72 506.38 L 426.75 507.37 L 424.78 508.36 L 422.81 509.34 L 420.85 510.33 L 418.88 511.31 L 416.91 512.30 L 414.94 513.28 L 412.97 514.26 L 411.00 515.25 L 409.03 516.23 L 407.06 517.22 L 405.09 518.20 L 403.13 519.19 L 401.16 520.17 L 399.19 521.15 L 397.23 522.16 L 395.24 523.10 L 393.28 524.10 L 391.45 525.42 L 389.53 526.53 L 387.53 527.42 L 385.62 528.57 L 383.78 529.84 L 381.83 530.88 L 379.83 531.79 L 377.87 532.79 L 376.00 534.02 L 374.12 535.21 L 372.14 536.17 L 370.17 537.15 L 368.35 538.50 L 366.41 539.56 L 364.47 540.60 L 362.65 541.94 L 360.78 543.17 L 358.88 544.31 L 356.94 545.37 L 355.07 546.58 L 353.23 547.88 L 351.35 549.09 L 349.49 550.34 L 347.63 551.58 L 345.76 552.81 L 343.92 554.09 L 342.04 555.29 L 340.17 556.51 L 338.35 557.86 L 336.55 559.24 L 334.71 560.55 L 332.85 561.79 L 330.97 562.98 L 329.12 564.26 L 327.31 565.64 L 325.51 567.03 L 323.68 568.34 L 321.85 569.66 L 320.08 571.13 L 318.33 572.64 L 316.50 573.95 L 314.71 575.38 L 312.91 576.76 L 311.01 577.92 L 309.37 579.69 L 307.66 581.30 L 305.74 582.39 L 304.02 583.98 L 302.37 585.73 L 300.60 587.20 L 298.76 588.51 L 296.99 589.98 L 295.30 591.63 L 293.65 593.36 L 291.98 595.07 L 290.26 596.69 L 288.61 598.40 L 286.95 600.13 L 285.08 601.53 L 283.54 602.94 L 282.13 604.58 L 280.64 606.36 L 279.01 608.12 L 277.23 609.76 L 275.47 611.38 L 273.96 613.12 L 272.74 615.01 L 271.20 616.75 L 269.65 618.47 L 268.46 620.36 L 266.91 622.10 L 265.44 623.86 L 264.08 625.68 L 262.76 627.51 L 261.42 629.33 L 259.99 631.11 L 258.67 632.94 L 257.48 634.83 L 256.17 636.66 L 255.01 638.56 L 253.97 640.50 L 252.79 642.39 L 251.49 644.23 L 250.24 646.09 L 249.20 648.03 L 248.26 650.02 L 247.26 651.98 L 246.27 653.95 L 245.29 655.92 L 244.30 657.88 L 243.33 659.86 L 242.35 661.83 L 241.30 663.77 L 240.44 665.79 L 239.68 667.85 L 238.85 669.88 L 238.00 671.91 L 237.29 673.99 L 236.30 675.96 L 235.66 678.07 L 234.96 680.15 L 234.24 682.24 L 233.56 684.33 L 232.85 686.41 L 232.16 688.50 L 231.77 690.72 L 231.11 692.82 L 230.70 695.02 L 229.96 697.10 L 230.09 699.53 L 229.37 701.60 L 228.96 703.81 L 229.09 706.25 L 228.79 708.48 L 228.16 710.61 L 227.92 712.90 L 228.06 715.27 L 227.99 717.70 L 227.91 720.07 L 228.45 722.24 L 229.03 724.38 L 228.94 726.79 L 229.31 729.01 L 229.94 731.13 L 230.41 733.31 L 231.10 735.40 L 231.94 737.42 L 232.86 739.42 L 233.47 741.55 L 234.57 743.45 L 235.90 745.30 L 237.11 747.18 L 238.32 749.00 L 239.77 750.84 L 241.44 752.57 L 243.23 754.03 L 245.03 755.39 L 246.81 756.83 L 248.67 758.08 L 250.62 759.11 L 252.61 760.04 L 254.58 761.02 L 256.52 762.08 L 258.57 762.86 L 260.79 763.26 L 262.91 763.87 L 265.05 764.43 L 267.23 764.93 L 269.49 765.21 L 271.62 765.76 L 273.88 766.05 L 276.25 766.10 L 278.67 766.03 L 281.06 765.96 L 283.42 765.94 L 285.78 765.97 L 288.15 766.03 L 290.57 766.09 L 292.91 765.94 L 295.00 765.27 L 297.26 765.01 L 299.57 764.84 L 301.65 764.13 L 303.93 763.90 L 306.08 763.34 L 308.25 762.86 L 310.36 762.21 L 312.58 761.82 L 314.67 761.13 L 316.74 760.41 L 318.84 759.73 L 320.92 759.00 L 323.02 758.36 L 325.10 757.64 L 327.08 756.67 L 329.17 755.99 L 331.19 755.12 L 333.21 754.27 L 335.29 753.55 L 337.30 752.67 L 339.23 751.60 L 341.20 750.61 L 343.31 749.97 L 345.21 748.82 L 347.11 747.67 L 349.19 746.96 L 351.14 745.91 L 353.03 744.75 L 354.97 743.70 L 356.99 742.82 L 358.92 741.74 L 360.77 740.47 L 362.68 739.36 L 364.68 738.45 L 366.59 737.32 L 368.43 736.02 L 370.30 734.80 L 372.17 733.57 L 374.02 732.31 L 375.88 731.07 L 377.75 729.84 L 379.62 728.61 L 381.46 727.32 L 383.27 725.95 L 385.06 724.54 L 386.88 723.19 L 388.72 721.91 L 390.48 720.40 L 392.34 719.17 L 394.17 717.84 L 395.84 716.15 L 397.50 714.41 L 399.26 712.91 L 401.08 711.58 L 402.87 710.18 L 404.57 708.51 L 406.20 706.73 L 407.88 705.05 L 409.66 703.65 L 411.48 702.25 L 413.24 700.73 L 414.95 699.13 L 416.62 697.46 L 418.27 695.75 L 419.93 694.03 L 421.60 692.33 L 423.31 690.65 L 425.04 689.00 L 426.74 687.34 L 428.38 685.66 L 429.91 683.93 L 431.31 682.11 L 432.68 680.29 L 434.30 678.59 L 436.07 676.96 L 437.82 675.30 L 439.40 673.58 L 440.78 671.77 L 442.15 669.97 L 443.70 668.23 L 445.43 666.57 L 447.12 664.89 L 448.60 663.13 L 449.96 661.32 L 451.32 659.51 L 452.77 657.73 L 454.26 655.97 L 455.79 654.23 L 457.33 652.49 L 458.85 650.74 L 460.29 648.96 L 461.68 647.16 L 463.08 645.36 L 464.52 643.58 L 465.97 641.81 L 467.41 640.03 L 468.76 638.21 L 470.00 636.35 L 471.50 634.60 L 473.05 632.86 L 474.34 631.02 L 475.55 629.14 L 476.84 627.30 L 478.27 625.52 L 479.59 623.69 L 480.74 621.79 L 482.13 619.99 L 483.53 618.19 L 484.80 616.34 L 486.01 614.47 L 487.26 612.61 L 488.52 610.75 L 489.73 608.88 L 490.96 607.01 L 492.26 605.17 L 493.60 603.35 L 494.96 601.54 L 496.28 599.71 L 497.36 597.78 L 498.38 595.83 L 499.69 593.99 L 500.92 592.12 L 502.15 590.26 L 503.43 588.41 L 504.53 586.49 L 505.57 584.55 L 506.88 582.71 L 507.90 580.76 L 509.02 578.84 L 510.36 577.02 L 511.58 575.15 L 512.66 573.22 L 513.77 571.30 L 515.01 569.44 L 516.05 567.50 L 516.95 565.49 L 518.29 563.67 L 519.36 561.74 L 520.43 559.81 L 521.72 557.96 L 522.79 556.03 L 523.70 554.03 L 524.68 552.06 L 525.89 550.19 L 527.11 548.31 L 528.09 546.34 L 529.04 544.36 L 530.36 542.53 L 531.48 540.62 L 532.39 538.62 L 533.52 536.71 L 534.74 534.84 L 535.86 532.93 L 536.76 530.92 L 537.75 528.96 L 538.94 527.08 L 540.14 525.20 L 541.18 523.25 L 542.09 521.25 L 543.12 519.30 L 544.07 517.32 L 545.07 515.36 L 546.34 513.51 L 547.51 511.61 L 548.42 509.61 L 549.44 507.66 L 550.36 505.67 L 551.48 503.75 L 552.77 501.91 L 553.79 499.95 L 554.76 497.98 L 555.74 496.01 L 556.73 494.04 L 557.71 492.07 L 558.70 490.11 L 559.68 488.14 L 560.65 486.16 L 561.67 484.21 L 562.61 482.22 L 563.58 480.25 L 564.78 478.36 L 565.98 476.49 L 567.02 474.55 L 567.92 472.53 L 568.99 470.63 L 570.15 468.70 L 571.39 466.83 L 573.20 465.87 L 575.33 465.24 L 577.42 464.52 L 579.51 463.83 L 581.60 463.14 L 583.68 462.43 L 585.77 461.74 L 587.86 461.05 L 589.95 460.35 L 592.04 459.67 L 594.03 458.74 L 596.08 457.94 L 598.19 457.30 L 600.26 456.57 L 602.36 455.89 L 604.44 455.19 L 606.53 454.48 L 608.62 453.80 L 610.71 453.10 L 612.80 452.40 L 614.88 451.70 L 616.97 451.00 L 619.07 450.33 L 621.14 449.61 L 623.23 448.91 L 625.34 448.26 L 627.39 447.49 L 629.41 446.61 L 631.45 445.80 L 633.56 445.15 L 635.65 444.47 L 637.72 443.74 L 639.82 443.07 L 641.91 442.37 L 643.99 441.66 L 646.08 440.98 L 648.17 440.28 L 650.26 439.58 L 652.35 438.89 L 654.43 438.17 L 656.53 437.50 L 658.63 436.83 L 660.62 435.91 L 662.66 435.09 L 664.76 434.42 L 666.84 433.71 L 668.93 433.02 L 671.02 432.34 L 673.11 431.63 L 675.20 430.93 L 677.28 430.23 L 679.38 429.55 L 681.46 428.85 L 683.54 428.14 L 685.64 427.47 L 687.72 426.75 L 689.81 426.06 L 691.90 425.37 L 693.99 424.66 L 696.09 424.01 L 698.12 423.18 L 700.13 422.29 L 702.21 421.58 L 704.31 420.91 L 706.39 420.19 L 708.49 419.52 L 710.57 418.80 L 712.66 418.12 L 714.74 417.41 L 716.84 416.73 L 718.93 416.03 L 721.01 415.32 L 723.10 414.64 L 725.19 413.94 L 727.27 413.23 L 729.37 412.57 L 731.34 411.57 L 733.41 410.85 L 735.51 410.18 L 737.59 409.45 L 739.69 408.78 L 741.77 408.08 L 743.86 407.38 L 745.95 406.68 L 748.03 405.98 L 750.13 405.30 L 752.21 404.59 L 754.30 403.90 L 756.39 403.21 L 758.48 402.51 L 760.56 401.80 L 762.65 401.11 L 764.75 400.43 L 766.83 399.72 L 768.92 399.03 L 771.00 398.32 L 773.10 397.65 L 775.17 396.92 L 777.29 396.28 L 779.34 395.52 L 781.33 394.57 L 783.46 393.98 L 785.64 393.50 L 787.57 392.42 L 789.76 391.98 L 791.87 391.33 L 793.86 390.41 L 795.93 389.65 L 798.04 389.01 L 800.11 388.27 L 802.21 387.62 L 804.29 386.90 L 806.38 386.21 L 808.46 385.50 L 810.56 384.83 L 812.64 384.12 L 814.74 383.43 L 816.82 382.72 L 818.91 382.03 L 821.00 381.34 L 823.09 380.64 L 825.17 379.93 L 827.26 379.24 L 829.36 378.58 L 831.32 377.57 L 833.40 376.85 L 835.50 376.19 L 837.58 375.46 L 839.67 374.78 L 841.75 374.07 L 843.85 373.40 L 845.93 372.69 L 848.02 371.98 L 850.12 371.33 L 852.19 370.57 L 854.20 369.70 L 856.24 368.88 L 858.34 368.22 L 860.44 367.54 L 862.51 366.81 L 864.61 366.13 L 866.70 365.44 L 868.78 364.75 L 870.81 363.89 L 872.81 363.00 L 874.93 362.36 L 877.02 361.68 L 879.10 360.96 L 881.19 360.27 L 883.28 359.57 L 885.36 358.86 L 887.47 358.23 L 889.52 357.45 L 891.51 356.52 L 893.59 355.79 L 895.69 355.11 L 897.75 354.44 L 899.88 353.60 L 901.74 353.75 L 901.85 355.72 L 900.54 357.75 L 899.42 359.57 L 898.46 361.56 L 897.50 363.56 L 896.51 365.50 L 895.41 367.43 L 894.16 369.29 L 893.07 371.21 L 892.20 373.23 L 890.93 375.08 L 889.73 376.96 L 888.79 378.95 L 887.42 380.76 L 886.39 382.71 L 885.43 384.69 L 884.26 386.58 L 883.12 388.48 L 881.98 390.39 L 880.80 392.27 L 879.66 394.18 L 878.67 396.14 L 877.67 398.10 L 876.38 399.95 L 875.09 401.79 L 873.91 403.68 L 872.93 405.65 L 871.94 407.62 L 870.66 409.46 L 869.52 411.36 L 868.62 413.37 L 867.48 415.27 L 866.27 417.15 L 865.16 419.07 L 864.02 420.97 L 862.90 422.88 L 861.71 424.77 L 860.55 426.66 L 859.51 428.60 L 858.33 430.49 L 857.07 432.35 L 856.12 434.33 L 854.85 436.18 L 853.68 438.08 L 852.71 440.05 L 851.37 441.87 L 850.30 443.80 L 849.40 445.81 L 848.24 447.70 L 846.95 449.54 L 845.71 451.41 L 844.55 453.30 L 843.65 455.31 L 842.54 457.22 L 841.24 459.06 L 840.27 461.03 L 839.05 462.91 L 837.87 464.79 L 836.81 466.73 L 835.65 468.63 L 834.32 470.46 L 833.10 472.33 L 832.11 474.29 L 830.91 476.17 L 829.67 478.03 L 828.73 480.02 L 827.44 481.86 L 826.12 483.69 L 825.02 485.61 L 823.93 487.54 L 822.70 489.40 L 821.59 491.32 L 820.60 493.29 L 819.58 495.24 L 818.28 497.08 L 816.99 498.92 L 815.91 500.85 L 814.77 502.76 L 813.55 504.63 L 812.49 506.56 L 811.38 508.48 L 810.11 510.33 L 808.84 512.18 L 807.70 514.10 L 806.67 516.01 L 805.99 518.14 L 805.93 520.52 L 806.56 522.69 L 807.50 524.64 L 808.79 526.17 L 810.69 527.13 L 812.77 528.01 L 815.07 527.93 L 817.24 527.38 L 819.23 526.48 L 821.06 525.07 L 822.54 523.29 L 823.76 521.38 L 825.15 519.59 L 826.57 517.81 L 827.90 515.97 L 829.21 514.15 L 830.64 512.36 L 832.00 510.55 L 833.21 508.67 L 834.46 506.81 L 835.71 504.96 L 836.92 503.08 L 838.18 501.23 L 839.54 499.41 L 840.92 497.61 L 842.30 495.80 L 843.64 493.98 L 844.94 492.14 L 846.16 490.27 L 847.38 488.40 L 848.64 486.55 L 849.87 484.68 L 851.12 482.82 L 852.36 480.96 L 853.60 479.10 L 854.85 477.24 L 856.06 475.36 L 857.42 473.55 L 858.88 471.78 L 860.07 469.90 L 861.28 468.02 L 862.55 466.17 L 863.87 464.34 L 865.23 462.52 L 866.57 460.71 L 867.78 458.83 L 869.01 456.96 L 870.28 455.11 L 871.46 453.22 L 872.80 451.40 L 874.22 449.62 L 875.50 447.77 L 876.71 445.89 L 878.06 444.07 L 879.42 442.26 L 880.78 440.45 L 882.18 438.65 L 883.50 436.82 L 884.65 434.93 L 886.03 433.09 L 887.45 431.36 L 888.66 429.43 L 890.27 427.59 L 891.74 427.92 L 892.79 429.96 L 893.69 431.98 L 894.32 434.08 L 895.24 436.08 L 896.30 438.02 L 897.26 439.99 L 898.17 441.99 L 899.29 443.91 L 900.55 445.76 L 901.57 447.71 L 902.72 449.61 L 903.98 451.47 L 905.19 453.34 L 906.51 455.18 L 907.83 457.00 L 909.19 458.81 L 910.70 460.59 L 912.23 462.31 L 913.69 464.04 L 915.06 465.92 L 916.54 467.74 L 918.28 469.26 L 920.13 470.64 L 921.92 472.11 L 923.63 473.67 L 925.36 475.17 L 927.20 476.49 L 929.01 477.89 L 930.80 479.27 L 932.70 480.44 L 934.54 481.72 L 936.42 482.94 L 938.37 483.96 L 940.35 484.91 L 942.31 485.92 L 944.30 486.86 L 946.25 487.88 L 948.19 488.92 L 950.24 489.71 L 952.31 490.46 L 954.30 491.39 L 956.37 492.14 L 958.47 492.80 L 960.52 493.58 L 962.73 494.00 L 964.83 494.66 L 967.05 495.05 L 969.11 495.80 L 971.43 495.95 L 973.54 496.58 L 975.75 496.99 L 978.09 497.07 L 980.19 497.75 L 982.43 498.08 L 984.84 497.97 L 987.22 497.98 L 989.41 498.42 L 991.54 498.98 L 993.89 499.10 L 996.32 499.02 L 998.70 498.96 L 1001.05 498.95 L 1003.41 498.98 L 1005.81 499.06 L 1008.23 499.08 L 1010.48 498.77 L 1012.59 498.17 L 1014.87 497.92 L 1017.27 497.98 L 1019.69 498.08 L 1022.03 498.02 L 1024.24 497.60 L 1026.36 496.98 L 1028.74 497.00 L 1031.12 497.00 L 1033.16 496.19 L 1035.46 496.01 L 1037.75 495.79 L 1039.81 495.03 L 1042.19 495.05 L 1044.36 494.55 L 1046.51 493.99 L 1048.81 493.80 L 1050.89 493.09 L 1053.07 492.63 L 1055.22 492.07 L 1057.50 491.83 L 1059.60 491.19 L 1061.79 490.73 L 1063.91 490.10 L 1066.10 489.65 L 1068.22 489.03 L 1070.42 488.61 L 1072.46 487.81 L 1074.56 487.14 L 1076.79 486.79 L 1078.87 486.06 L 1080.92 485.28 L 1083.15 484.91 L 1085.26 484.29 L 1087.33 483.53 L 1089.43 482.87 L 1091.51 482.16 L 1093.58 481.41 L 1095.78 480.99 L 1097.91 480.39 L 1099.98 479.65 L 1102.10 479.02 L 1104.12 478.16 L 1106.13 477.28 L 1108.22 476.59 L 1110.31 475.90 L 1112.39 475.19 L 1114.49 474.52 L 1116.57 473.80 L 1118.66 473.13 L 1120.74 472.40 L 1122.70 471.41 L 1124.80 470.73 L 1126.90 470.07 L 1128.95 469.28 L 1130.92 468.30 L 1133.06 467.71 L 1135.02 466.72 L 1137.08 465.95 L 1139.17 465.27 L 1141.28 464.61 L 1143.25 463.63 L 1145.20 462.61 L 1147.29 461.91 L 1149.34 461.13 L 1151.28 460.06 L 1153.30 459.21 L 1155.40 458.55 L 1157.37 457.57 L 1159.33 456.56 L 1161.42 455.87 L 1163.47 455.08 L 1165.39 453.99 L 1167.43 453.17 L 1169.53 452.49 L 1171.51 451.54 L 1173.44 450.46 L 1175.44 449.55 L 1177.52 448.85 L 1179.55 448.00 L 1181.51 447.00 L 1183.46 445.98 L 1185.49 445.14 L 1187.59 444.47 L 1189.57 443.50 L 1191.51 442.47 L 1193.50 441.51 L 1195.46 440.52 L 1197.43 439.54 L 1199.40 438.55 L 1201.35 437.53 L 1203.46 436.88 L 1205.49 436.06 L 1207.44 435.01 L 1209.41 434.05 L 1211.38 433.06 L 1213.35 432.07 L 1215.32 431.09 L 1217.29 430.11 L 1219.26 429.12 L 1221.23 428.14 L 1223.19 427.15 L 1225.16 426.17 L 1227.13 425.19 L 1229.10 424.20 L 1231.07 423.21 L 1233.04 422.24 L 1235.01 421.25 L 1236.97 420.25 L 1238.96 419.32 L 1240.85 418.12 L 1242.69 416.86 L 1244.66 415.92 L 1246.70 414.93 L 1248.58 413.95 L 1250.51 412.94 L 1252.74 411.98 L 1254.50 412.61 L 1255.09 414.90 L 1255.08 417.25 L 1255.71 419.35 L 1256.08 421.59 L 1256.22 423.90 L 1256.96 425.97 L 1257.03 428.32 L 1257.42 430.53 L 1258.05 432.65 L 1258.03 435.03 L 1258.27 437.31 L 1259.07 439.36 L 1259.01 441.76 L 1258.91 444.18 L 1259.52 446.28 L 1259.93 448.51 L 1260.07 450.86 L 1260.02 453.20 L 1259.95 455.58 L 1260.02 458.00 L 1260.06 460.41 L 1259.82 462.67 L 1259.01 464.65 L 1257.44 466.20 L 1255.32 466.92 L 1253.02 467.04 L 1250.94 467.75 L 1248.67 468.02 L 1246.34 468.12 L 1244.28 468.90 L 1242.06 469.28 L 1239.97 469.96 L 1237.66 470.11 L 1235.58 470.83 L 1233.27 470.99 L 1231.18 471.70 L 1228.93 471.99 L 1226.60 472.11 L 1224.54 472.86 L 1222.21 472.98 L 1220.14 473.72 L 1217.86 473.95 L 1215.58 474.20 L 1213.46 474.81 L 1211.20 475.08 L 1209.06 475.66 L 1206.84 476.02 L 1204.61 476.39 L 1202.50 477.04 L 1200.34 477.56 L 1198.17 478.04 L 1196.03 478.63 L 1193.95 479.35 L 1191.87 480.05 L 1189.78 480.75 L 1187.68 481.42 L 1185.60 482.12 L 1183.57 482.96 L 1181.55 483.82 L 1179.47 484.55 L 1177.46 485.43 L 1175.57 486.60 L 1173.72 487.88 L 1171.85 489.06 L 1169.99 490.36 L 1168.18 491.74 L 1166.38 493.06 L 1164.59 494.47 L 1162.83 496.07 L 1161.15 497.78 L 1159.64 499.54 L 1158.49 501.42 L 1157.46 503.39 L 1156.20 505.24 L 1155.58 507.34 L 1154.76 509.42 L 1154.23 511.53 L 1154.00 513.80 L 1153.89 516.20 L 1153.93 518.62 L 1154.16 520.94 L 1154.63 523.07 L 1155.34 525.14 L 1156.33 527.14 L 1157.26 529.11 L 1158.33 531.02 L 1159.76 532.84 L 1161.45 534.55 L 1163.21 536.16 L 1164.94 537.64 L 1166.77 538.93 L 1168.69 540.08 L 1170.62 541.12 L 1172.68 541.89 L 1174.76 542.62 L 1176.74 543.59 L 1178.81 544.31 L 1180.96 544.87 L 1183.10 545.43 L 1185.24 546.00 L 1187.63 545.98 L 1189.73 546.61 L 1191.97 547.06 L 1194.31 547.04 L 1196.68 546.93 L 1199.09 546.98 L 1201.50 547.08 L 1203.86 547.07 L 1206.13 546.81 L 1208.29 546.25 L 1210.55 546.01 L 1212.84 545.79 L 1214.93 545.08 L 1217.11 544.62 L 1219.27 544.09 L 1221.40 543.51 L 1223.40 542.59 L 1225.46 541.83 L 1227.51 541.05 L 1229.46 540.01 L 1231.43 539.02 L 1233.42 538.09 L 1235.35 537.03 L 1237.25 535.87 L 1239.12 534.65 L 1240.86 533.10 L 1242.62 531.62 L 1244.44 530.30 L 1246.21 528.81 L 1247.91 527.18 L 1249.58 525.47 L 1251.24 523.73 L 1252.91 522.03 L 1254.57 520.39 L 1256.03 518.63 L 1257.26 516.73 L 1258.63 514.93 L 1260.07 513.16 L 1261.43 511.34 L 1262.58 509.44 L 1263.51 507.45 L 1264.60 505.52 L 1265.86 503.67 L 1266.99 501.76 L 1267.78 499.71 L 1268.40 497.59 L 1269.47 495.66 L 1270.45 493.69 L 1270.99 491.54 L 1271.52 489.38 L 1272.24 487.30 L 1272.89 485.20 L 1273.29 482.98 L 1274.17 480.92 L 1276.05 479.99 L 1278.29 479.64 L 1280.38 478.94 L 1282.81 479.07 L 1284.84 478.24 L 1287.13 478.04 L 1289.44 477.87 L 1291.49 477.08 L 1293.87 477.09 L 1296.03 476.58 L 1298.22 476.13 L 1300.45 475.77 L 1302.57 475.16 L 1304.89 475.01 L 1307.11 474.65 L 1309.23 474.03 L 1311.58 473.95 L 1313.77 473.49 L 1315.89 472.90 L 1318.31 472.98 L 1320.33 472.14 L 1322.66 472.02 L 1324.76 471.35 L 1326.99 471.01 L 1329.21 470.63 L 1331.34 470.03 L 1333.63 469.82 L 1335.73 469.14 L 1337.92 468.69 L 1340.03 468.07 L 1342.34 467.89 L 1344.43 467.20 L 1346.63 466.78 L 1348.75 466.16 L 1350.92 465.66 L 1353.04 465.04 L 1355.36 464.90 L 1357.45 464.21 L 1359.65 463.78 L 1361.75 463.12 L 1363.97 462.74 L 1366.02 461.97 L 1368.12 461.30 L 1370.31 460.83 L 1372.44 460.24 L 1374.49 459.45 L 1376.67 458.99 L 1378.81 458.42 L 1380.89 457.68 L 1383.01 457.09 L 1385.19 456.61 L 1387.29 455.93 L 1389.36 455.20 L 1391.46 454.52 L 1393.54 453.81 L 1395.64 453.14 L 1397.71 452.40 L 1399.82 451.75 L 1401.89 451.03 L 1403.99 450.35 L 1406.06 449.62 L 1408.18 448.99 L 1410.20 448.14 L 1412.20 447.23 L 1414.31 446.57 L 1416.40 445.90 L 1418.42 445.02 L 1420.44 444.18 L 1422.52 443.47 L 1424.52 442.54 L 1426.58 441.78 L 1428.63 441.00 L 1430.62 440.07 L 1432.73 439.41 L 1434.70 438.44 L 1436.64 437.39 L 1438.62 436.42 L 1440.61 435.48 L 1442.68 434.77 L 1444.75 433.98 L 1446.45 432.47 L 1447.54 430.61 L 1448.04 428.37 L 1448.07 425.95 L 1447.64 423.82 L 1446.68 421.72 L 1445.14 419.98 L 1443.12 419.10 L 1440.79 418.86 L 1438.41 419.14 L 1436.42 420.00 L 1434.49 421.02 L 1432.50 422.00 L 1430.53 422.97 L 1428.58 423.98 L 1426.61 424.97 L 1424.58 425.82 L 1422.49 426.50 L 1420.52 427.49 L 1418.56 428.48 L 1416.46 429.16 L 1414.44 430.03 L 1412.42 430.87 L 1410.33 431.58 L 1408.23 432.24 L 1406.15 432.95 L 1404.06 433.65 L 1401.97 434.34 L 1399.88 435.03 L 1397.79 435.73 L 1395.71 436.45 L 1393.61 437.11 L 1391.53 437.82 L 1389.45 438.53 L 1387.35 439.20 L 1385.28 439.93 L 1383.18 440.61 L 1381.01 441.10 L 1378.87 441.67 L 1376.81 442.45 L 1374.65 442.96 L 1372.48 443.45 L 1370.43 444.25 L 1368.29 444.82 L 1366.12 445.31 L 1364.01 445.97 L 1361.96 446.75 L 1359.74 447.12 L 1357.63 447.77 L 1355.43 448.20 L 1353.32 448.85 L 1351.13 449.28 L 1349.02 449.93 L 1346.83 450.38 L 1344.69 450.96 L 1342.42 451.21 L 1340.29 451.80 L 1338.05 452.14 L 1335.88 452.62 L 1333.73 453.17 L 1331.61 453.80 L 1329.34 454.06 L 1327.16 454.54 L 1325.01 455.09 L 1322.92 455.77 L 1320.64 456.00 L 1318.33 456.16 L 1316.27 456.94 L 1313.93 457.01 L 1311.89 457.81 L 1309.55 457.92 L 1307.33 458.29 L 1305.18 458.83 L 1302.93 459.14 L 1300.80 459.73 L 1298.54 460.03 L 1296.37 460.52 L 1294.22 461.05 L 1291.82 461.00 L 1289.79 461.84 L 1287.47 461.97 L 1285.20 462.24 L 1283.10 462.92 L 1280.79 463.01 L 1278.49 463.43 L 1276.85 463.08 L 1276.65 461.17 L 1276.92 458.91 L 1277.12 456.54 L 1277.01 454.18 L 1276.92 451.80 L 1276.99 449.40 L 1277.08 447.00 L 1277.04 444.66 L 1276.74 442.39 L 1276.15 440.25 L 1275.97 437.96 L 1275.94 435.59 L 1275.11 433.56 L 1275.00 431.23 L 1274.74 428.96 L 1274.00 426.89 L 1273.90 424.55 L 1273.08 422.52 L 1273.09 420.13 L 1272.58 417.97 L 1272.13 415.78 L 1271.77 413.56 L 1271.18 411.42 L 1270.93 409.15 L 1271.03 406.76 L 1270.94 404.32 L 1271.64 402.27 L 1273.53 400.92 L 1275.52 400.00 L 1277.49 399.02 L 1279.45 398.00 L 1281.42 397.04 L 1283.41 396.09 L 1285.35 395.04 L 1287.24 393.87 L 1289.11 392.66 L 1291.08 391.68 L 1293.08 390.77 L 1295.00 389.66 L 1296.87 388.43 L 1298.77 387.30 L 1300.79 386.42 L 1302.66 385.21 L 1304.54 384.01 L 1306.48 382.96 L 1308.38 381.81 L 1310.22 380.49 L 1312.09 379.28 L 1313.95 378.03 L 1315.81 376.78 L 1317.69 375.60 L 1319.53 374.25 L 1321.27 372.75 L 1322.98 371.21 L 1324.76 369.74 L 1326.62 368.34 L 1328.33 366.82 L 1329.73 364.99 L 1330.98 363.04 L 1332.42 361.31 L 1333.76 359.50 L 1334.91 357.58 L 1335.95 355.65 L 1336.93 353.67 L 1337.81 351.66 L 1338.56 349.60 L 1338.92 347.36 L 1339.31 345.17 L 1339.93 343.02 L 1340.09 340.70 L 1339.50 338.49 L 1338.98 336.36 L 1338.76 334.07 L 1338.02 332.00 L 1337.31 329.93 L 1335.99 328.06 L 1334.58 326.31 L 1333.13 324.84 L 1331.48 323.46 L 1329.64 322.00 L 1327.61 321.17 L 1325.54 320.46 L 1323.34 320.02 L 1321.24 319.36 L 1319.04 318.95 L 1316.64 319.01 L 1314.25 318.99 L 1311.88 318.98 L 1309.65 319.36 L 1307.57 320.05 L 1305.37 320.48 L 1303.24 321.07 L 1301.08 321.60 L 1299.17 322.72 L 1297.16 323.62 L 1295.07 324.31 L 1293.05 325.16 L 1291.12 326.25 L 1289.26 327.48 L 1287.35 328.61 L 1285.43 329.73 L 1283.62 331.08 L 1281.84 332.52 L 1280.03 333.93 L 1278.37 335.57 L 1276.58 337.04 L 1274.65 338.27 L 1273.09 339.90 L 1271.75 341.80 L 1270.38 343.66 L 1268.89 345.38 L 1267.44 347.12 L 1266.12 348.98 L 1264.79 350.82 L 1263.51 352.65 L 1262.44 354.58 L 1261.46 356.56 L 1260.48 358.53 L 1259.52 360.50 L 1258.50 362.46 L 1257.53 364.43 L 1256.81 366.51 L 1256.14 368.61 L 1255.73 370.82 L 1255.09 372.93 L 1254.62 375.11 L 1254.06 377.25 L 1253.85 379.54 L 1253.09 381.60 L 1253.00 383.95 L 1253.00 386.32 L 1252.93 388.65 L 1253.10 391.13 L 1252.95 393.45 L 1251.74 395.23 L 1249.80 396.44 L 1247.80 397.33 L 1245.83 398.31 L 1243.88 399.33 L 1241.90 400.30 L 1239.93 401.28 L 1237.97 402.27 L 1235.99 403.25 L 1234.03 404.24 L 1232.06 405.22 L 1230.09 406.21 L 1228.12 407.19 L 1226.15 408.17 L 1224.18 409.16 L 1222.21 410.14 L 1220.24 411.12 L 1218.28 412.12 L 1216.30 413.08 L 1214.34 414.08 L 1212.39 415.12 L 1210.33 415.86 L 1208.27 416.64 L 1206.28 417.58 L 1204.32 418.58 L 1202.36 419.58 L 1200.39 420.55 L 1198.41 421.52 L 1196.47 422.57 L 1194.47 423.47 L 1192.40 424.21 L 1190.35 425.02 L 1188.40 426.04 L 1186.44 427.05 L 1184.45 427.99 L 1182.53 429.07 L 1180.47 429.84 L 1178.39 430.56 L 1176.41 431.52 L 1174.46 432.53 L 1172.50 433.54 L 1170.38 434.16 L 1168.36 435.03 L 1166.41 436.06 L 1164.44 437.05 L 1162.42 437.89 L 1160.32 438.57 L 1158.35 439.54 L 1156.41 440.60 L 1154.41 441.51 L 1152.32 442.21 L 1150.30 443.05 L 1148.36 444.12 L 1146.31 444.90 L 1144.24 445.63 L 1142.26 446.60 L 1140.29 447.59 L 1138.21 448.30 L 1136.09 448.92 L 1134.05 449.73 L 1132.05 450.65 L 1129.98 451.38 L 1127.86 451.99 L 1125.84 452.86 L 1123.82 453.70 L 1121.76 454.47 L 1119.73 455.32 L 1117.70 456.15 L 1115.60 456.81 L 1113.49 457.47 L 1111.41 458.19 L 1109.40 459.05 L 1107.37 459.90 L 1105.28 460.59 L 1103.18 461.25 L 1101.10 461.98 L 1099.01 462.67 L 1096.91 463.34 L 1094.84 464.06 L 1092.75 464.75 L 1090.65 465.43 L 1088.59 466.19 L 1086.46 466.78 L 1084.28 467.27 L 1082.17 467.91 L 1080.12 468.70 L 1077.90 469.07 L 1075.81 469.75 L 1073.59 470.15 L 1071.49 470.80 L 1069.44 471.59 L 1067.25 472.05 L 1065.10 472.59 L 1062.94 473.12 L 1060.83 473.76 L 1058.57 474.04 L 1056.37 474.47 L 1054.25 475.08 L 1052.12 475.67 L 1049.87 475.99 L 1047.68 476.43 L 1045.54 477.01 L 1043.16 477.01 L 1041.07 477.70 L 1038.81 477.96 L 1036.65 478.50 L 1034.49 479.02 L 1032.08 478.93 L 1029.88 479.35 L 1027.78 480.04 L 1025.39 479.99 L 1023.01 479.98 L 1020.95 480.75 L 1018.70 481.06 L 1016.30 481.00 L 1013.92 480.98 L 1011.54 480.98 L 1009.26 481.21 L 1007.16 481.87 L 1004.86 482.06 L 1002.48 482.05 L 1000.07 481.98 L 997.68 481.98 L 995.40 481.89 L 993.31 481.14 L 991.04 480.86 L 988.58 481.08 L 986.22 481.04 L 984.17 480.24 L 981.88 480.04 L 979.58 479.87 L 977.50 479.13 L 975.19 478.98 L 973.06 478.38 L 970.89 477.88 L 968.76 477.30 L 966.69 476.56 L 964.60 475.86 L 962.51 475.16 L 960.41 474.49 L 958.47 473.45 L 956.48 472.53 L 954.41 471.77 L 952.46 470.74 L 950.61 469.47 L 948.62 468.54 L 946.62 467.64 L 944.73 466.47 L 942.85 465.26 L 940.97 464.05 L 939.16 462.72 L 937.36 461.32 L 935.56 459.88 L 933.79 458.45 L 932.06 457.00 L 930.29 455.40 L 928.57 453.68 L 927.05 451.90 L 925.75 450.11 L 924.32 448.32 L 922.66 446.62 L 921.14 444.88 L 920.02 442.97 L 918.76 441.11 L 917.46 439.28 L 916.39 437.34 L 915.44 435.34 L 914.47 433.43 L 913.36 431.40 L 913.03 429.28 L 914.70 428.02 L 916.99 427.71 L 919.08 427.05 L 921.44 427.01 L 923.60 426.49 L 925.77 425.99 L 928.01 425.65 L 930.16 425.12 L 932.39 424.76 L 934.55 424.22 L 936.79 423.91 L 938.94 423.37 L 941.13 422.90 L 943.23 422.23 L 945.45 421.85 L 947.55 421.19 L 949.59 420.39 L 951.78 419.94 L 953.94 419.42 L 956.08 418.85 L 958.24 418.32 L 960.28 417.51 L 962.46 417.03 L 964.60 416.47 L 966.70 415.79 L 968.77 415.05 L 970.88 414.40 L 972.95 413.67 L 974.97 412.80 L 976.99 411.95 L 979.10 411.32 L 981.19 410.62 L 983.17 409.66 L 985.24 408.92 L 987.28 408.10 L 989.30 407.25 L 991.36 406.48 L 993.39 405.64 L 995.42 404.82 L 997.49 404.07 L 999.44 403.04 L 1001.38 401.99 L 1003.43 401.19 L 1005.51 400.49 L 1007.49 399.53 L 1009.44 398.51 L 1011.44 397.58 L 1013.35 396.45 L 1015.21 395.20 L 1017.13 394.12 L 1019.13 393.21 L 1021.10 392.22 L 1022.99 391.04 L 1024.84 389.77 L 1026.70 388.52 L 1028.57 387.31 L 1030.43 386.07 L 1032.27 384.70 L 1034.06 383.35 L 1035.83 381.96 L 1037.59 380.43 L 1039.33 378.79 L 1041.02 377.08 L 1042.63 375.34 L 1044.15 373.59 L 1045.54 371.83 L 1046.75 369.95 L 1047.77 367.98 L 1048.72 366.01 L 1049.76 364.06 L 1050.68 362.07 L 1051.11 359.87 L 1051.79 357.75 L 1052.02 355.52 L 1052.02 353.08 L 1052.05 350.71 L 1051.52 348.55 L 1050.97 346.40 L 1050.47 344.23 L 1049.37 342.31 L 1048.46 340.31 L 1047.28 338.44 L 1046.09 336.53 L 1044.73 334.70 L 1043.05 333.10 L 1041.20 331.74 L 1039.32 330.56 L 1037.48 329.30 L 1035.57 328.15 L 1033.47 327.48 L 1031.49 326.52 L 1029.42 325.78 L 1027.32 325.12 L 1025.04 324.92 L 1022.87 324.36 L 1020.69 323.88 L 1018.32 324.03 L 1015.87 324.05 L 1013.49 323.88 L 1011.28 324.27 L 1009.14 324.93 L 1006.82 325.02 L 1004.59 325.37 L 1002.50 326.06 L 1000.30 326.48 L 998.25 327.28 L 996.15 327.94 L 994.07 328.67 L 991.97 329.33 L 989.87 330.00 L 987.85 330.87 L 985.82 331.70 L 983.76 332.45 L 981.74 333.32 L 979.80 334.37 L 977.83 335.34 L 975.85 336.31 L 973.89 337.31 L 971.92 338.29 L 969.95 339.28 L 967.97 340.25 L 966.03 341.28 L 964.18 342.56 L 962.26 343.65 L 960.32 344.72 L 958.49 346.03 L 956.51 347.00 L 954.63 348.18 L 952.81 349.53 L 950.92 350.70 L 948.99 351.77 L 947.08 352.91 L 945.23 354.18 L 943.37 355.43 L 941.50 356.65 L 939.66 357.94 L 937.76 359.09 L 935.91 360.37 L 934.17 361.90 L 932.40 363.36 L 930.56 364.67 L 928.76 366.06 L 926.97 367.46 L 925.12 368.75 L 923.29 370.06 L 921.53 371.54 L 919.83 373.17 L 918.15 374.86 L 916.48 376.56 L 914.77 378.20 L 913.01 379.69 L 911.18 380.91 L 909.44 382.49 L 907.72 384.39 L 906.22 384.14 L 906.54 382.05 L 907.73 380.05 L 908.93 378.21 L 910.02 376.30 L 911.12 374.36 L 912.36 372.50 L 913.47 370.60 L 914.51 368.64 L 915.81 366.81 L 916.85 364.86 L 917.97 362.95 L 919.24 361.10 L 920.26 359.14 L 921.43 357.25 L 922.64 355.37 L 923.59 353.39 L 924.48 351.38 L 925.65 349.50 L 926.95 347.66 L 927.86 345.61 L 929.26 344.08 L 931.26 343.11 L 933.24 342.15 L 935.19 341.13 L 937.16 340.16 L 939.16 339.23 L 941.01 337.97 L 942.88 336.74 L 944.89 335.88 L 946.83 334.81 L 948.62 333.39 L 950.43 332.03 L 952.29 330.79 L 954.16 329.57 L 956.03 328.33 L 957.86 327.02 L 959.67 325.65 L 961.46 324.23 L 963.28 322.90 L 965.13 321.63 L 966.87 320.07 L 968.63 318.59 L 970.47 317.30 L 972.28 315.94 L 974.08 314.55 L 975.90 313.19 L 977.71 311.83 L 979.53 310.48 L 981.36 309.16 L 983.13 307.71 L 984.89 306.23 L 986.69 304.83 L 988.52 303.51 L 990.33 302.13 L 992.12 300.72 L 993.97 299.44 L 995.80 298.12 L 997.48 296.46 L 999.30 295.12 L 1001.16 293.87 L 1002.85 292.19 L 1004.65 290.80 L 1006.52 289.58 L 1008.32 288.20 L 1010.07 286.69 L 1011.84 285.23 L 1013.69 283.95 L 1015.46 282.49 L 1017.16 280.86 L 1019.05 279.69 L 1020.83 278.24 L 1022.47 276.46 L 1024.20 274.90 L 1026.04 273.61 L 1027.84 272.22 L 1029.52 270.54 L 1031.28 269.04 L 1033.16 267.85 L 1034.86 266.21 L 1036.53 264.52 L 1038.46 263.43 L 1040.20 261.90 L 1041.83 260.08 L 1043.52 258.44 L 1045.28 256.94 L 1047.07 255.54 L 1048.86 254.12 L 1050.59 252.55 L 1052.23 250.79 L 1053.87 249.01 L 1055.56 247.37 L 1057.35 245.91 L 1059.15 244.51 L 1060.92 243.04 L 1062.62 241.44 L 1064.29 239.77 L 1065.94 238.05 L 1067.61 236.32 L 1069.32 234.64 L 1071.05 233.00 L 1072.75 231.36 L 1074.32 229.63 L 1075.74 227.82 L 1077.14 226.02 L 1078.66 224.28 L 1080.33 222.60 L 1082.07 220.95 L 1083.79 219.28 L 1085.41 217.57 L 1086.84 215.79 L 1088.11 213.94 L 1089.66 212.21 L 1091.51 210.59 L 1093.12 208.89 L 1094.26 206.98 L 1095.77 205.23 L 1097.46 203.56 L 1098.88 201.77 L 1100.05 199.88 L 1101.82 198.23 L 1103.09 196.38 L 1104.38 194.54 L 1106.10 192.87 L 1107.37 191.03 L 1108.65 189.18 L 1110.11 187.41 L 1111.48 185.60 L 1112.77 183.76 L 1114.06 181.91 L 1115.36 180.08 L 1116.68 178.25 L 1118.00 176.42 L 1119.31 174.58 L 1120.58 172.73 L 1121.75 170.84 L 1122.80 168.90 L 1123.95 167.00 L 1125.26 165.16 L 1126.51 163.31 L 1127.54 161.36 L 1128.68 159.45 L 1129.95 157.60 L 1130.95 155.64 L 1131.90 153.66 L 1132.91 151.70 L 1133.89 149.73 L 1134.86 147.76 L 1135.86 145.79 L 1136.84 143.82 L 1137.81 141.85 L 1138.84 139.90 L 1139.74 137.89 L 1140.40 135.79 L 1141.30 133.79 L 1142.15 131.76 L 1142.76 129.64 L 1143.50 127.57 L 1144.16 125.47 L 1144.87 123.38 L 1145.60 121.31 L 1146.09 119.14 L 1146.62 116.98 L 1147.14 114.82 L 1147.82 112.73 L 1147.98 110.41 L 1148.61 108.31 L 1149.03 106.10 L 1149.05 103.70 L 1149.00 101.32 L 1148.97 98.96 L 1148.96 96.60 L 1149.01 94.20 L 1149.10 91.79 L 1148.97 89.46 L 1148.42 87.32 L 1147.96 85.13 L 1147.37 82.99 L 1146.64 80.92 L 1145.76 78.91 L 1144.66 76.98 L 1143.49 75.11 L 1142.12 73.29 L 1140.58 71.53 L 1138.92 69.84 L 1137.18 68.26 L 1135.37 66.84 L 1133.50 65.65 L 1131.49 64.78 L 1129.37 64.13 L 1127.30 63.40 L 1125.11 62.96 L 1122.83 62.72 L 1120.75 62.00 L 1118.40 61.90 Z M 1249.83 483.84 L 1251.89 483.03 L 1253.83 483.06 L 1254.94 484.60 L 1254.24 486.49 L 1253.45 488.40 L 1252.95 490.32 L 1252.21 492.17 L 1251.25 493.95 L 1250.38 495.76 L 1249.49 497.56 L 1248.47 499.30 L 1247.39 501.01 L 1246.33 502.75 L 1245.27 504.48 L 1244.12 506.16 L 1242.85 507.78 L 1241.48 509.39 L 1240.03 510.98 L 1238.53 512.54 L 1237.00 514.08 L 1235.45 515.58 L 1233.88 517.03 L 1232.27 518.40 L 1230.63 519.67 L 1228.95 520.83 L 1227.23 521.90 L 1225.48 522.91 L 1223.71 523.87 L 1221.93 524.80 L 1220.14 525.71 L 1218.34 526.60 L 1216.52 527.44 L 1214.66 528.18 L 1212.73 528.75 L 1210.69 529.04 L 1208.66 529.39 L 1206.72 530.00 L 1204.63 530.06 L 1202.44 529.96 L 1200.25 529.96 L 1198.05 530.02 L 1195.88 530.06 L 1193.75 530.02 L 1191.68 529.81 L 1189.69 529.37 L 1187.73 528.82 L 1185.79 528.26 L 1183.90 527.62 L 1182.07 526.86 L 1180.27 525.97 L 1178.49 524.95 L 1176.80 523.75 L 1175.28 522.35 L 1174.03 520.69 L 1173.07 518.82 L 1172.30 516.97 L 1172.14 515.14 L 1172.88 513.18 L 1173.26 511.15 L 1174.06 509.33 L 1175.27 507.65 L 1176.76 506.11 L 1178.43 504.73 L 1180.15 503.54 L 1181.83 502.49 L 1183.49 501.33 L 1185.18 500.11 L 1187.02 499.31 L 1188.94 498.74 L 1190.75 497.88 L 1192.54 496.95 L 1194.38 496.18 L 1196.29 495.56 L 1198.20 494.94 L 1200.09 494.27 L 1202.10 493.89 L 1204.06 493.39 L 1205.91 492.63 L 1207.86 492.11 L 1209.86 491.70 L 1211.82 491.21 L 1213.73 490.60 L 1215.73 490.18 L 1217.80 489.96 L 1219.74 489.40 L 1221.73 488.98 L 1223.82 488.80 L 1225.72 488.15 L 1227.77 487.86 L 1229.79 487.52 L 1231.73 486.97 L 1233.81 486.76 L 1235.71 486.12 L 1237.81 485.96 L 1239.77 485.43 L 1241.73 484.97 L 1243.80 484.77 L 1245.77 484.17 L 1247.75 483.89 Z M 541.86 476.63 L 544.08 476.21 L 544.45 477.71 L 543.31 479.92 L 542.26 481.94 L 541.28 483.95 L 540.23 486.02 L 539.23 488.07 L 538.20 490.10 L 537.16 492.15 L 536.18 494.21 L 535.13 496.24 L 533.88 498.19 L 532.63 500.15 L 531.63 502.20 L 530.64 504.26 L 529.59 506.30 L 528.58 508.35 L 527.57 510.40 L 526.42 512.39 L 525.16 514.34 L 524.02 516.33 L 523.02 518.39 L 522.06 520.46 L 521.04 522.51 L 519.92 524.51 L 518.71 526.48 L 517.51 528.45 L 516.45 530.48 L 515.50 532.56 L 514.50 534.61 L 513.26 536.57 L 512.01 538.52 L 510.96 540.56 L 509.92 542.59 L 508.69 544.55 L 507.45 546.51 L 506.32 548.51 L 505.10 550.47 L 503.96 552.47 L 502.99 554.54 L 501.70 556.47 L 500.46 558.43 L 499.55 560.52 L 498.35 562.49 L 497.04 564.42 L 496.01 566.46 L 495.00 568.51 L 493.73 570.46 L 492.38 572.36 L 491.16 574.33 L 490.02 576.33 L 488.85 578.31 L 487.54 580.23 L 486.19 582.15 L 484.92 584.09 L 483.75 586.07 L 482.60 588.07 L 481.36 590.02 L 480.04 591.95 L 478.73 593.87 L 477.33 595.76 L 475.88 597.63 L 474.59 599.56 L 473.35 601.52 L 472.05 603.45 L 470.75 605.38 L 469.42 607.30 L 468.01 609.18 L 466.61 611.07 L 465.29 612.99 L 463.98 614.92 L 462.57 616.81 L 461.11 618.67 L 459.68 620.55 L 458.29 622.44 L 456.90 624.33 L 455.48 626.22 L 453.97 628.06 L 452.43 629.89 L 450.99 631.77 L 449.66 633.68 L 448.24 635.56 L 446.65 637.37 L 445.18 639.23 L 443.76 641.12 L 442.15 642.92 L 440.46 644.69 L 438.88 646.50 L 437.46 648.38 L 435.97 650.23 L 434.40 652.05 L 432.85 653.88 L 431.27 655.70 L 429.61 657.48 L 427.83 659.21 L 426.07 660.95 L 424.46 662.75 L 423.07 664.65 L 421.62 666.51 L 419.88 668.25 L 418.04 669.96 L 416.22 671.69 L 414.45 673.44 L 412.79 675.21 L 411.24 677.02 L 409.73 678.84 L 408.18 680.68 L 406.54 682.50 L 404.82 684.30 L 403.06 686.04 L 401.28 687.70 L 399.47 689.30 L 397.65 690.87 L 395.83 692.43 L 394.02 694.02 L 392.23 695.68 L 390.50 697.45 L 388.75 699.18 L 386.82 700.50 L 384.95 701.94 L 383.22 703.71 L 381.37 705.21 L 379.46 706.58 L 377.61 708.06 L 375.77 709.58 L 373.90 711.03 L 371.99 712.37 L 370.09 713.75 L 368.23 715.21 L 366.35 716.65 L 364.45 718.03 L 362.53 719.34 L 360.58 720.60 L 358.65 721.89 L 356.72 723.20 L 354.78 724.49 L 352.83 725.73 L 350.85 726.91 L 348.86 728.07 L 346.89 729.27 L 344.87 730.37 L 342.81 731.35 L 340.75 732.34 L 338.72 733.41 L 336.67 734.41 L 334.62 735.42 L 332.60 736.51 L 330.51 737.42 L 328.38 738.24 L 326.28 739.12 L 324.13 739.91 L 322.03 740.78 L 319.94 741.70 L 317.76 742.41 L 315.59 743.12 L 313.44 743.89 L 311.25 744.57 L 309.01 745.12 L 306.77 745.69 L 304.54 746.25 L 302.31 746.82 L 299.96 747.12 L 297.76 747.77 L 295.38 747.98 L 292.98 748.14 L 290.71 748.64 L 288.41 749.07 L 285.96 749.08 L 283.45 748.95 L 280.96 748.96 L 278.51 749.05 L 276.06 749.02 L 273.72 748.62 L 271.52 748.01 L 269.16 747.75 L 266.97 747.07 L 264.88 746.15 L 262.83 745.15 L 260.75 744.23 L 258.74 743.11 L 256.82 741.73 L 255.02 740.14 L 253.33 738.35 L 251.85 736.43 L 250.68 734.44 L 249.80 732.38 L 248.80 730.31 L 248.12 728.11 L 247.83 725.78 L 247.24 723.54 L 246.96 721.17 L 246.93 718.74 L 247.01 716.26 L 247.07 713.76 L 246.95 711.25 L 246.94 708.83 L 247.56 706.59 L 247.93 704.27 L 248.14 701.90 L 248.74 699.67 L 249.08 697.35 L 249.57 695.08 L 250.14 692.85 L 250.81 690.65 L 251.48 688.46 L 252.08 686.24 L 252.62 684.00 L 253.39 681.85 L 254.34 679.77 L 255.16 677.64 L 255.82 675.44 L 256.62 673.31 L 257.59 671.24 L 258.28 669.06 L 259.28 667.00 L 260.62 665.09 L 261.75 663.09 L 262.75 661.03 L 263.74 658.97 L 264.78 656.93 L 265.82 654.90 L 267.00 652.92 L 268.26 650.97 L 269.42 648.98 L 270.59 647.00 L 271.79 645.02 L 272.92 643.02 L 274.28 641.11 L 275.70 639.24 L 277.08 637.34 L 278.52 635.46 L 279.98 633.60 L 281.39 631.71 L 282.69 629.79 L 284.12 627.91 L 285.91 626.18 L 287.57 624.40 L 288.93 622.50 L 290.45 620.65 L 292.13 618.87 L 293.85 617.11 L 295.59 615.37 L 297.34 613.64 L 299.11 611.91 L 300.87 610.17 L 302.62 608.41 L 304.34 606.63 L 306.07 604.86 L 307.83 603.17 L 309.66 601.62 L 311.54 600.18 L 313.39 598.67 L 315.14 596.94 L 316.87 595.18 L 318.74 593.73 L 320.63 592.32 L 322.43 590.71 L 324.21 589.04 L 326.02 587.46 L 327.90 586.03 L 329.78 584.61 L 331.64 583.14 L 333.52 581.71 L 335.41 580.31 L 337.30 578.91 L 339.18 577.49 L 341.06 576.08 L 342.95 574.67 L 344.82 573.24 L 346.71 571.84 L 348.65 570.54 L 350.61 569.32 L 352.52 567.97 L 354.40 566.55 L 356.30 565.18 L 358.22 563.84 L 360.14 562.52 L 362.09 561.28 L 364.11 560.19 L 366.08 558.98 L 368.00 557.66 L 369.94 556.38 L 371.86 555.06 L 373.81 553.81 L 375.88 552.85 L 377.89 551.74 L 379.82 550.42 L 381.85 549.36 L 383.79 548.10 L 385.76 546.87 L 387.82 545.89 L 389.81 544.73 L 391.78 543.52 L 393.77 542.38 L 395.72 541.13 L 397.69 539.93 L 399.73 538.88 L 401.77 537.86 L 403.82 536.84 L 405.88 535.84 L 407.90 534.75 L 409.83 533.45 L 411.81 532.28 L 413.88 531.32 L 415.93 530.30 L 417.97 529.26 L 420.02 528.24 L 422.06 527.22 L 424.11 526.20 L 426.15 525.18 L 428.20 524.15 L 430.24 523.11 L 432.29 522.12 L 434.34 521.11 L 436.36 520.02 L 438.41 519.00 L 440.54 518.19 L 442.68 517.38 L 444.74 516.40 L 446.78 515.37 L 448.82 514.33 L 450.86 513.30 L 452.94 512.35 L 455.10 511.60 L 457.20 510.72 L 459.22 509.63 L 461.25 508.57 L 463.33 507.64 L 465.47 506.83 L 467.59 505.99 L 469.61 504.92 L 471.73 504.07 L 473.89 503.33 L 475.91 502.25 L 478.02 501.36 L 480.16 500.57 L 482.25 499.66 L 484.29 498.63 L 486.42 497.81 L 488.57 497.02 L 490.64 496.08 L 492.82 495.38 L 495.01 494.71 L 497.07 493.72 L 499.10 492.66 L 501.27 491.93 L 503.38 491.05 L 505.47 490.14 L 507.66 489.47 L 509.81 488.71 L 511.92 487.84 L 514.04 486.98 L 516.15 486.13 L 518.28 485.30 L 520.39 484.45 L 522.50 483.57 L 524.63 482.76 L 526.81 482.05 L 529.00 481.38 L 531.14 480.58 L 533.23 479.67 L 535.36 478.85 L 537.55 478.16 L 539.69 477.44 Z M 1009.82 341.56 L 1012.05 341.12 L 1014.38 340.94 L 1016.81 340.99 L 1019.26 340.99 L 1021.42 341.47 L 1023.66 342.00 L 1025.83 342.53 L 1027.65 343.83 L 1029.50 345.40 L 1031.19 347.13 L 1032.37 349.08 L 1032.91 351.23 L 1033.54 353.42 L 1033.95 355.54 L 1033.15 357.69 L 1032.29 359.74 L 1031.29 361.71 L 1030.03 363.62 L 1028.54 365.44 L 1026.89 367.15 L 1025.14 368.74 L 1023.32 370.20 L 1021.47 371.57 L 1019.61 372.88 L 1017.74 374.19 L 1015.85 375.46 L 1013.94 376.66 L 1012.01 377.82 L 1010.07 378.95 L 1008.13 380.09 L 1006.21 381.28 L 1004.30 382.49 L 1002.34 383.59 L 1000.34 384.57 L 998.35 385.59 L 996.35 386.58 L 994.21 387.25 L 992.15 388.09 L 990.18 389.16 L 988.22 390.25 L 986.09 390.92 L 984.03 391.76 L 981.99 392.67 L 979.88 393.39 L 977.85 394.31 L 975.75 395.07 L 973.69 395.92 L 971.63 396.77 L 969.55 397.56 L 967.49 398.42 L 965.42 399.24 L 963.28 399.88 L 961.18 400.64 L 959.04 401.28 L 956.94 402.04 L 954.80 402.71 L 952.70 403.45 L 950.59 404.17 L 948.43 404.78 L 946.23 405.30 L 944.08 405.92 L 942.00 406.73 L 939.84 407.34 L 937.73 408.05 L 935.46 408.39 L 933.35 409.13 L 931.09 409.49 L 928.97 410.20 L 926.77 410.70 L 924.55 411.17 L 922.45 411.91 L 920.07 411.98 L 918.01 412.85 L 915.63 412.92 L 913.48 413.55 L 911.27 414.02 L 908.94 414.22 L 906.87 415.07 L 904.44 414.96 L 902.22 415.63 L 901.01 414.57 L 902.31 412.51 L 903.48 410.65 L 905.11 408.95 L 906.81 407.23 L 908.49 405.47 L 910.19 403.73 L 911.90 402.05 L 913.66 400.47 L 915.47 399.02 L 917.29 397.60 L 919.06 396.05 L 920.74 394.29 L 922.41 392.48 L 924.14 390.86 L 925.95 389.41 L 927.78 387.99 L 929.57 386.49 L 931.34 384.95 L 933.12 383.43 L 934.94 381.99 L 936.77 380.59 L 938.61 379.21 L 940.44 377.81 L 942.26 376.37 L 944.09 374.98 L 945.98 373.71 L 947.88 372.49 L 949.71 371.08 L 951.51 369.61 L 953.48 368.54 L 955.42 367.41 L 957.30 366.13 L 959.19 364.87 L 961.08 363.61 L 962.97 362.34 L 964.85 361.08 L 966.77 359.89 L 968.75 358.84 L 970.73 357.81 L 972.66 356.64 L 974.58 355.45 L 976.55 354.39 L 978.57 353.45 L 980.59 352.50 L 982.58 351.49 L 984.56 350.44 L 986.55 349.43 L 988.59 348.52 L 990.68 347.75 L 992.75 346.92 L 994.79 346.02 L 996.93 345.38 L 999.04 344.65 L 1001.14 343.90 L 1003.31 343.30 L 1005.49 342.75 L 1007.66 342.17 Z M 1308.87 335.68 L 1310.29 335.23 L 1311.77 334.93 L 1313.40 334.96 L 1315.05 335.00 L 1316.63 335.01 L 1318.13 335.24 L 1319.51 335.86 L 1320.65 336.84 L 1321.45 338.07 L 1321.85 339.48 L 1321.99 341.03 L 1322.05 342.65 L 1322.08 344.30 L 1321.96 345.88 L 1321.61 347.36 L 1321.13 348.74 L 1320.54 350.08 L 1319.82 351.39 L 1318.96 352.66 L 1318.00 353.90 L 1316.96 355.10 L 1315.85 356.26 L 1314.70 357.38 L 1313.52 358.46 L 1312.34 359.50 L 1311.15 360.50 L 1309.94 361.48 L 1308.73 362.45 L 1307.52 363.40 L 1306.31 364.36 L 1305.09 365.32 L 1303.88 366.27 L 1302.64 367.17 L 1301.38 368.01 L 1300.09 368.79 L 1298.79 369.53 L 1297.49 370.28 L 1296.20 371.06 L 1294.92 371.84 L 1293.63 372.63 L 1292.35 373.41 L 1291.05 374.18 L 1289.76 374.95 L 1288.47 375.70 L 1287.17 376.47 L 1285.89 377.25 L 1284.61 378.05 L 1283.33 378.85 L 1282.04 379.61 L 1280.72 380.33 L 1279.42 381.07 L 1278.15 381.93 L 1276.89 382.76 L 1275.61 383.42 L 1274.28 384.25 L 1272.86 384.90 L 1271.43 384.52 L 1271.03 383.32 L 1271.49 381.79 L 1271.77 380.25 L 1271.92 378.73 L 1272.14 377.24 L 1272.46 375.76 L 1272.86 374.30 L 1273.30 372.87 L 1273.78 371.46 L 1274.31 370.08 L 1274.92 368.72 L 1275.57 367.37 L 1276.23 366.04 L 1276.89 364.70 L 1277.54 363.36 L 1278.20 362.03 L 1278.88 360.70 L 1279.59 359.38 L 1280.35 358.08 L 1281.18 356.81 L 1282.07 355.58 L 1283.02 354.37 L 1284.02 353.18 L 1285.07 351.99 L 1286.15 350.81 L 1287.26 349.65 L 1288.40 348.52 L 1289.57 347.42 L 1290.76 346.37 L 1291.96 345.37 L 1293.18 344.42 L 1294.41 343.52 L 1295.64 342.64 L 1296.88 341.75 L 1298.14 340.87 L 1299.41 340.05 L 1300.73 339.34 L 1302.07 338.70 L 1303.42 338.07 L 1304.74 337.38 L 1306.06 336.68 L 1307.43 336.10 Z M 1115.88 80.69 L 1118.12 79.99 L 1120.35 80.81 L 1122.70 81.21 L 1124.77 82.65 L 1126.59 84.38 L 1128.12 86.31 L 1129.35 88.39 L 1130.22 90.61 L 1130.74 92.93 L 1130.93 95.35 L 1130.97 97.87 L 1131.05 100.45 L 1131.09 103.03 L 1130.91 105.52 L 1130.41 107.85 L 1129.95 110.20 L 1129.57 112.60 L 1128.88 114.86 L 1128.31 117.18 L 1127.56 119.41 L 1126.72 121.62 L 1126.15 123.93 L 1125.55 126.23 L 1124.67 128.41 L 1123.74 130.58 L 1122.90 132.78 L 1121.85 134.89 L 1120.69 136.96 L 1119.98 139.22 L 1118.85 141.30 L 1117.52 143.29 L 1116.56 145.44 L 1115.50 147.56 L 1114.27 149.60 L 1113.00 151.62 L 1111.77 153.66 L 1110.61 155.73 L 1109.40 157.78 L 1108.03 159.76 L 1106.58 161.70 L 1105.21 163.68 L 1103.89 165.69 L 1102.53 167.68 L 1101.19 169.67 L 1099.91 171.69 L 1098.60 173.69 L 1097.13 175.63 L 1095.63 177.56 L 1094.31 179.56 L 1093.01 181.57 L 1091.46 183.48 L 1089.75 185.32 L 1088.16 187.21 L 1086.68 189.15 L 1085.19 191.08 L 1083.62 192.98 L 1082.04 194.87 L 1080.45 196.76 L 1078.86 198.66 L 1077.27 200.54 L 1075.66 202.43 L 1074.05 204.30 L 1072.43 206.18 L 1070.78 208.06 L 1069.08 209.90 L 1067.33 211.72 L 1065.55 213.53 L 1063.79 215.34 L 1062.07 217.18 L 1060.42 219.06 L 1058.80 220.94 L 1057.17 222.82 L 1055.48 224.67 L 1053.69 226.46 L 1051.83 228.22 L 1049.95 229.98 L 1048.10 231.78 L 1046.33 233.64 L 1044.60 235.53 L 1042.80 237.24 L 1040.85 238.71 L 1038.89 240.19 L 1037.03 241.89 L 1035.26 243.74 L 1033.49 245.60 L 1031.67 247.34 L 1029.73 248.83 L 1027.77 250.26 L 1025.93 251.98 L 1024.19 253.91 L 1022.35 255.64 L 1020.39 257.05 L 1018.46 258.56 L 1016.64 260.32 L 1014.81 262.05 L 1012.89 263.56 L 1010.93 264.99 L 1009.02 266.53 L 1007.13 268.13 L 1005.25 269.73 L 1003.35 271.30 L 1001.44 272.86 L 999.53 274.39 L 997.61 275.92 L 995.70 277.44 L 993.78 278.98 L 991.86 280.50 L 989.92 281.96 L 987.96 283.39 L 986.05 284.92 L 984.16 286.51 L 982.23 288.01 L 980.27 289.42 L 978.31 290.85 L 976.38 292.34 L 974.46 293.86 L 972.53 295.37 L 970.61 296.88 L 968.68 298.37 L 966.74 299.86 L 964.81 301.32 L 962.84 302.73 L 960.84 304.09 L 958.86 305.46 L 956.94 306.91 L 954.99 308.36 L 952.95 309.76 L 951.00 311.05 L 949.11 312.43 L 947.12 314.19 L 945.09 315.67 L 943.46 315.32 L 944.03 313.21 L 945.27 311.06 L 946.27 308.96 L 947.30 306.86 L 948.40 304.75 L 949.43 302.62 L 950.46 300.51 L 951.68 298.47 L 952.99 296.45 L 954.12 294.37 L 955.12 292.24 L 956.16 290.12 L 957.24 288.02 L 958.32 285.92 L 959.36 283.80 L 960.36 281.66 L 961.45 279.57 L 962.69 277.53 L 963.94 275.50 L 965.08 273.42 L 966.12 271.30 L 967.12 269.17 L 968.19 267.07 L 969.39 265.01 L 970.62 262.97 L 971.81 260.92 L 972.89 258.81 L 973.90 256.68 L 974.93 254.56 L 976.06 252.48 L 977.33 250.46 L 978.58 248.43 L 979.62 246.31 L 980.62 244.17 L 981.88 242.14 L 983.18 240.14 L 984.27 238.04 L 985.36 235.94 L 986.63 233.92 L 987.88 231.89 L 988.90 229.76 L 989.93 227.64 L 991.17 225.60 L 992.48 223.59 L 993.73 221.56 L 994.90 219.50 L 996.02 217.41 L 997.17 215.34 L 998.40 213.30 L 999.65 211.27 L 1000.87 209.23 L 1002.09 207.18 L 1003.30 205.14 L 1004.54 203.10 L 1005.78 201.07 L 1006.99 199.02 L 1008.18 196.96 L 1009.43 194.93 L 1010.75 192.93 L 1012.03 190.91 L 1013.27 188.87 L 1014.49 186.83 L 1015.77 184.81 L 1017.18 182.85 L 1018.68 180.92 L 1020.10 178.96 L 1021.40 176.95 L 1022.68 174.93 L 1023.99 172.92 L 1025.41 170.96 L 1026.89 169.03 L 1028.31 167.06 L 1029.62 165.06 L 1030.93 163.05 L 1032.32 161.08 L 1033.83 159.15 L 1035.40 157.25 L 1036.86 155.31 L 1038.21 153.32 L 1039.62 151.36 L 1041.17 149.45 L 1042.73 147.55 L 1044.23 145.62 L 1045.70 143.68 L 1047.17 141.74 L 1048.68 139.82 L 1050.26 137.92 L 1051.83 136.02 L 1053.34 134.10 L 1054.84 132.17 L 1056.38 130.26 L 1057.95 128.36 L 1059.51 126.46 L 1061.08 124.56 L 1062.67 122.67 L 1064.30 120.79 L 1065.99 118.94 L 1067.76 117.13 L 1069.64 115.36 L 1071.54 113.60 L 1073.26 111.77 L 1074.72 109.81 L 1076.20 107.86 L 1077.91 106.04 L 1079.79 104.36 L 1081.71 102.80 L 1083.61 101.25 L 1085.46 99.58 L 1087.28 97.82 L 1089.09 96.04 L 1090.94 94.34 L 1092.85 92.79 L 1094.80 91.35 L 1096.74 89.89 L 1098.66 88.37 L 1100.60 86.89 L 1102.59 85.55 L 1104.66 84.40 L 1106.78 83.38 L 1108.92 82.36 L 1111.11 81.48 L 1113.47 81.11 Z"
        fill="currentColor"
        fill-rule="evenodd"
        clip-rule="evenodd"/>
</svg>
